# xmcd
#
# Track frame offsets:
#	150
#	10721
#	19639
#	31828
#	46016
#	55822
#	65622
#	79614
#	91477
#	102090
#	115261
#	124663
#	134722
#	145368
#	155497
#	167393
#
# Disc length: 2381 seconds
#
# Revision: 2
# Processed by: cddbd v1.5.2PL0 Copyright (c) Steve Scherf et al.
# Submitted via: audiograbber 1.83.01
#
DISCID=c6094b10
DTITLE=Various Artist - Nashville Gold - Super Country Hits, Vol. 2
DYEAR=1900
DGENRE=Traditional Country
TTITLE0=John D. Loudermilk - Blue Train
TTITLE1=Anita Kerr Singers - Night Train To Memphis 
TTITLE2=Hank Snow - I'm Movin' On
TTITLE3=Bobby Bare - Marie Laveau
TTITLE4=Charley Pride - Is Anybody Goin' To San Antone
TTITLE5=Waylon Jennings - Ruby, Don't Take Your Love To Town 
TTITLE6=Jim Reeves - The Wreck Of Number Nine
TTITLE7=Dave and Sugar - The Door Is Always Open
TTITLE8=Ronnie Milsap - Daydreams About Night Things 
TTITLE9=Dolly Parton - Joshua
TTITLE10=Willie Nelson - Blackjack County Chain
TTITLE11=Chet Atkins - Oh Lonesome Me
TTITLE12=Charlie Rich - There Won't Be Anymore
TTITLE13=Jerry Reed - When You're Hot You're Hot
TTITLE14=Hank Snow and Anita Carter - Bluebird Island
TTITLE15=Jim Reeves and Dottie West - Love Is No Excuse
EXTD=
EXTT0=
EXTT1=
EXTT2=
EXTT3=
EXTT4=
EXTT5=
EXTT6=
EXTT7=
EXTT8=
EXTT9=
EXTT10=
EXTT11=
EXTT12=
EXTT13=
EXTT14=
EXTT15=
PLAYORDER=
